<svg xmlns="http://www.w3.org/2000/svg" viewBox="0 0 512 512"><path d="m0,0h512v512h-512z"/><path d="m24.904 71.24c7.979-23.626 24.99-40.23 51.38-49.54 26.565 7.93 92.09 52.54 116.88 95.35 7.711-18.365 4.649-38.815 19.471-51.51 33.559-28.743 71.59-16.16 89.19.581 17.598 16.739 15.279 30.424 19.317 53.942 53.33-33.26 80.56-57.31 112.65-96.36 9.616 5.928 16.534 10.301 21.968 14.06 4.758 3.293-20.386 28.745-17.09 31.733 3.323 3.01 35.08-16.437 38.581-12.443 3.239 3.696 6.911 8.09 11.676 13.697 0 0-81.993 80.36-97.78 133.1-13.862 46.3-7.308 98.8 7.516 144.81 14.449 44.84 76.46 118.86 76.46 118.86-35.729 19.906-32.362 29.446-69.28 22.09-15.942-3.177-25.444-14.281-38.432-27.572-4.745-13.192-14.323-51.732-18.485-65.25-4.273-13.883-3.658 49.716-5.747 47.592-19.361-15.865-38.768-34.532-55.719-57.13-16.288 20.61 3.02 60.39-18.441 61.831-22.794 1.532.783-39.599-28.2-62.47l-77.02 100.43c-38.994-7.954-52.48-14.694-74.847-35.797 0 0 48.17-70.03 56.965-122.17 3.373-20 2.605-35.51 1.214-56.28-.477-7.122 20.225 3.754 22.13 5.52 8.206 7.62-20.19-36.14-25.498-33.17-4.05-21.04-10.354-41.22-17.972-59.1-19.1-44.825-67.1-91.98-100.88-114.81" fill="#fff"/><path d="m264.77 144.29c9.779 25.26-35.431 72.9-44.861 87.63 8.49-1.795 41.511-19.55 56.04-13.567-16.08 21.668-22.324 33.86-29.458 45.632 13.908-5.833 26.13-18.02 40.706-22.16 6.686-1.897-.27 26.297-1.314 40.713" fill="none" stroke="#000" stroke-width="18"/></svg>