<svg xmlns="http://www.w3.org/2000/svg" viewBox="0 0 512 512"><path d="m0,0h512v512h-512z"/><g transform="matrix(18.68858 0 0 18.68858-9762.12-41513.03)" stroke="#000"><g fill="#fff"><path d="m536.28 2239.46c-5.342 0-9.683 2.146-9.683 4.775 0 1.735 2.606 4.065 4.745 4.065 2.813-6.913 7.06-6.909 9.876 0 2.045 0 4.745-2.326 4.745-4.065 0-2.629-4.341-4.775-9.683-4.775z"/><path stroke-width=".904" d="m544.5 2241.3c0 1.726-3.502 3.125-7.822 3.125s-7.822-1.399-7.822-3.125 3.502-3.125 7.822-3.125 7.822 1.399 7.822 3.125z" transform="matrix(.96842 0 0 1.26412 16.555-592.52)"/><path d="m536.24 2223.99c-2.186.01-4.366.465-6.552 1.323 1.175 2.828-.775 7.303-2.905 8.07-.399 1.492.445 3.537 1.323 5.13l.032.064c2.01 2.099 4.992 3.607 8.101 3.872 3.715-.316 7.26-2.406 9.166-5.162.463-1.328.624-2.779.323-3.904-2.412-.71-4.15-5.699-2.905-8.07-2.186-.892-4.398-1.332-6.584-1.323z"/></g><path d="m536.29 2228.06v14.08" fill="none"/></g><g stroke-width=".968" fill="none" transform="matrix(19.30231 0 0 19.29502-10090.95-42862.53)" stroke="#fff"><path d="m528.08 2234.57c-.619-3.556.79-8.57 3.157-10.211"/><path d="m544.46 2234.57c.619-3.556-.79-8.57-3.157-10.211"/></g><path d="m541.94 2224.9c0 1.642-2.532 2.854-5.656 2.854s-5.656-1.098-5.656-2.854c0-.849 1.965-1.934 5.656-1.934s5.656 1.085 5.656 1.934z" transform="matrix(18.68858 0 0 18.68858-9762.12-41513.03)" stroke="#fff"/></svg>