<svg xmlns="http://www.w3.org/2000/svg" xmlns:xlink="http://www.w3.org/1999/xlink" viewBox="0 0 512 512"><path d="m0,0h512v512h-512z"/><defs><path d="m128 152a8 8 0 1 1 -16 0 8 8 0 1 1 16 0" id="a"/></defs><path d="m96 64l-32 384c64 32 128 32 192 32 64 0 128 0 192-32l-32-384c-160-64-160-64-320 0" fill="#fff"/><path d="m96 64h320" stroke-width="16" fill="none" stroke="#000" stroke-linecap="square"/><path d="m112 240h288v-48h-288z"/><g stroke-width="16" fill="none" stroke="#000"><path d="m240 240v240"/><path d="m272 240v240"/></g><use xlink:href="#a" transform="translate(136 16)"/><use xlink:href="#a" transform="translate(88 16)"/><use xlink:href="#a" transform="translate(40 16)"/><use xlink:href="#a" transform="translate(184 16)"/><use xlink:href="#a" transform="translate(232 16)"/><path d="m304 288v16h16v-16z"/><path d="m336 288v16h16v-16z"/><path d="m368 288v16h16v-16z"/><path d="m368 320v16h16v-16z"/><path d="m336 320v16h16v-16z"/><path d="m304 320v16h16v-16z"/><path d="m304 352v16h16v-16z"/><path d="m336 352v16h16v-16z"/><path d="m192 288v16h16v-16z"/><path d="m160 288v16h16v-16z"/><path d="m128 288v16h16v-16z"/><path d="m128 320v16h16v-16z"/><path d="m160 320v16h16v-16z"/><path d="m192 320v16h16v-16z"/><path d="m192 352v16h16v-16z"/><path d="m160 352v16h16v-16z"/><path d="m128 352v16h16v-16z"/><path d="m368 352v16h16v-16z"/></svg>
