<svg xmlns="http://www.w3.org/2000/svg" viewBox="0 0 512 512"><path d="m0,0h512v512h-512z"/>
<g transform="matrix(18.68858 0 0 18.68858 -7724.85993 -43549.10936)">
<path fill="none" stroke="#000" d="m418.105,2357.0137 20.2627,0"/>
<path fill="#fff" d="m415.9462,2341.2128-.995,2.3427 .0654,3.7257 1.7021,0zm2.2413,.3497-.9375,7.7813 .4375,6.5624 5.2812,0 .4375-6.875-.9375-7.4687-1.0625,8.75-1.125-8.75-1,8.3437zm6.4648-.4573-.8085,6.176 2.11,0-.4006-4.1524z"/>
<path fill="none" stroke="#fff" d="m422.9724,2356.0199 .5625-8.75 2.2188,0c0-3.7651-.252-8.2762-3.4375-8.875 .5877-.7081 .9688-1.856 .9688-2.9688 0-2.0092-1.1759-3.6875-2.9617-3.6875-1.7859,0-2.9617,1.6783-2.9617,3.6875 0,1.1128 .381,2.2607 .9688,2.9688-3.1855,.5988-3.4375,5.1099-3.4375,8.875h2.2188l.5625,8.75z"/>
<path fill="#fff" d="m436.2102,2356.0199 .5625-8.75 2.2188,0c0-3.7651-.252-8.2762-3.4375-8.875 .5877-.7081 .9688-1.856 .9688-2.9688 0-2.0092-1.1759-3.6875-2.9617-3.6875-1.7859,0-2.9617,1.6783-2.9617,3.6875 0,1.1128 .381,2.2607 .9688,2.9688-3.1855,.5988-3.4375,5.1099-3.4375,8.875h2.2188l.5625,8.75z"/>
<path d="m429.162,2341.4294-.713,1.7303-.9767,12.7465 12.1317,0-1.0696-12.9302-.6665-1.7559-1.1088,8.6861-1.0464-8.3437-1.0791,8.75-1.1118-8.75-1.0137,8.3437-1.0791-8.3437-1.0791,8.875z"/>
<path fill="none" stroke="#fff" d="m436.2102,2356.0199 .6701-8.75 2.1112,0c0-3.7651-.252-8.2762-3.4375-8.875 .5877-.7081 .9688-1.856 .9688-2.9688 0-2.0092-1.1759-3.6875-2.9617-3.6875-1.7859,0-2.9617,1.6783-2.9617,3.6875 0,1.1128 .381,2.2607 .9688,2.9688-3.1855,.5988-3.4375,5.1099-3.4375,8.875h2.2188l.5625,8.75z"/>
</g>
</svg>
