<svg xmlns="http://www.w3.org/2000/svg" viewBox="0 0 512 512"><path d="m0,0h512v512h-512z"/><g fill="#fff" transform="matrix(18.68858 0 0 18.68858-10439.07-29937.37)"><path d="m564.76 1619.87c.481.51 1.339.94 2.382.854-1.043.717-2.379.973-3.373.097"/><g stroke="#000"><path d="m565.75 1619.22c-3.416-3.415-6.071-.805-2.632 2.631.123-1.108 1.517-2.505 2.632-2.631z"/><path d="m565.36 1617.81c-1.251-4.665-6.242-3.361-4.981 1.334.985-.985 3.625-1.695 4.981-1.334z"/><path d="m565.21 1615.76c0-5.499-5.875-5.536-5.872 0 1.374-.793 4.488-.796 5.872 0z"/><path d="m565.84 1614.47c3.314-5.739-2.796-9.316-6.126-3.541 1.912 0 5.163 1.873 6.126 3.541z"/><path d="m566.99 1613.15c6.706-3.872 2.623-11.04-4.121-7.145 1.932 1.114 4.124 4.898 4.121 7.145z"/><path d="m568.79 1612.38c8.575.001 8.625-9.152-.001-9.153 1.238 2.143 1.246 6.996.001 9.153z"/><path d="m570.3 1613.38c8.761 5.058 14.196-4.236 5.383-9.324.003 2.913-2.842 7.862-5.383 9.324z"/><path d="m571.36 1615.15c5.839 10.119 16.633 3.965 10.759-6.214-1.68 2.913-7.375 6.219-10.759 6.214z"/><path d="m571.38 1617.43c-.007 13.386 14.23 13.458 14.238-.01-3.338 1.927-10.884 1.95-14.238.01z"/></g></g></svg>