<svg xmlns="http://www.w3.org/2000/svg" xmlns:xlink="http://www.w3.org/1999/xlink" viewBox="0 0 512 512"><path d="m0,0h512v512h-512z"/><defs><path id="0" d="m338.88 604.42c0 4.108-3.33 7.438-7.438 7.438s-7.438-3.33-7.438-7.438 3.33-7.438 7.438-7.438 7.438 3.33 7.438 7.438"/></defs><g fill="none" stroke="#fff"><use stroke-width=".605" transform="matrix(-15.45226 26.76411-26.76411-15.45226 21554.29 727.96)" xlink:href="#0"/><use stroke-width=".737" transform="matrix(-10.40994 18.0306-26.76411-15.45226 19883.08 3622.59)" xlink:href="#0"/><use stroke-width="1.134" transform="matrix(-4.39169 7.60664-26.76411-15.45226 17888.41 7077.46)" xlink:href="#0"/><use stroke-width=".737" transform="matrix(18.0306 10.40994-15.45226 26.76411 3619.67-19368.27)" xlink:href="#0"/><use stroke-width="1.134" transform="matrix(7.60664 4.3917-15.45226 26.76411 7074.55-17373.6)" xlink:href="#0"/></g><path fill="#fff" d="m359.79 779.71c0 2.985-2.42 5.405-5.405 5.405s-5.405-2.42-5.405-5.405 2.42-5.405 5.405-5.405 5.405 2.42 5.405 5.405" transform="matrix(21.49187 0 0 21.49187-7361.09-16497.17)"/></svg>
