<svg xmlns="http://www.w3.org/2000/svg" viewBox="0 0 512 512"><path d="m0,0h512v512h-512z"/><g fill="#fff" transform="matrix(18.68858 0 0 18.68858-13163.64-34719.11)"><g stroke="#000"><path d="m725.48 1869.23c-.127 1.375-2.499 4.526-2.499 4.526 0 0-1.676-3.855-1.441-5.207.609-3.505 4.183-1.946 3.94.68z"/><path d="m729.35 1870.92c-.405 1.286-3.289 4.693-3.289 4.693 0 0-.881-5.407-.377-6.636 1.308-3.187 4.44-.515 3.666 1.943z"/><path d="m717.51 1869.08c.116 1.377 2.461 4.559 2.461 4.559 0 0 1.708-3.832 1.485-5.187-.58-3.513-4.167-2-3.946.628z"/><path d="m713.67 1871.07c.394 1.292 3.692 4.846 3.692 4.846 0 0 .484-5.504-.01-6.739-1.281-3.204-4.436-.574-3.682 1.893z"/><path d="m716.95 1881.93c.094-1.378 2.389-4.585 2.389-4.585 0 0 1.769 3.813 1.566 5.17-.524 3.519-4.135 2.046-3.955-.585z"/><path d="m713.12 1880.34c.374-1.296 3.938-3.642 3.938-3.642 0 0 .249 4.254-.226 5.495-1.231 3.218-4.427.622-3.712-1.853z"/><path d="m725.01 1881.89c-.149-1.373-2.571-4.498-2.571-4.498 0 0-1.615 3.872-1.359 5.221.664 3.498 4.214 1.9 3.929-.723z"/><path d="m728.56 1879.85c-.318-1.313-3.572-4.159-3.572-4.159 0 0-.636 4.572-.215 5.834 1.092 3.274 4.395.832 3.786-1.675z"/></g><path d="m706.26 1860.29c.199 2.711.544 5.325 5.366 4.957-.132-4.378-2.729-4.701-5.366-4.957"/><path d="m728.31 1860.76c1.809.32 3.341 3.705-.225 4.545z"/><g stroke="#000"><path d="m710.07 1872.08c.147 1.182 2.335 3.632 2.335 3.632 0 0 1.395-3.572 1.153-4.721-.629-2.98-3.769-1.171-3.488 1.088z"/><path d="m710.57 1877.82c.571-.958 3.378-2.242 3.378-2.242 0 0-.136 3.579-.777 4.474-1.66 2.319-3.692-.4-2.601-2.231z"/></g></g></svg>
