<svg xmlns="http://www.w3.org/2000/svg" viewBox="0 0 512 512"><path d="m0,0h512v512h-512z"/>
<g transform="matrix(18.68858 0 0 18.68858 -11805.44037 -6353.17721)">
<path stroke="#fff" stroke-width=".944" d="m319.6501,676.1119c0,5.1431-4.1693,9.3123-9.3123,9.3123-5.1431,0-9.3123-4.1693-9.3123-9.3123 0-5.1431 4.1693-9.3124 9.3123-9.3124 5.1431,0 9.3123,4.1693 9.3123,9.3124z" transform="matrix(1.05883 0 0 1.05883 316.92713 -362.03467)"/>
</g>
<g fill="#fff" fill-rule="evenodd" transform="matrix(18.68858 0 0 18.68858 -11805.44037 -6353.17721)">
<path d="m657.4621,353.2404c-6.8822,3.8541-7,.1214-7.8625-6.3636-1.2827,7.6997-3.9428,10.094-9.3843,9.9272 5.9561,1.9118 8.4016,1.5516 7.8164,9.7653 1.9444-4.725 5.4258-4.7529 9.6841-1.6199-3.465-3.6565-3.1904-7.1996-.2536-11.709z"/>
<path d="m633.1053,352.2805c3.1834,1.6036 4.6112,3.358 5.6925,6.361-.6188-3.0761 .9379-4.964 4.2302-6.8477-2.9275,.8964-7.1129,1.135-9.9227,.4867z"/>
<path d="m645.0741,351.0306c-3.185-3.7185-3.9396-6.2788-2.3427-9.1423-2.6869,1.6519-5.7824,2.1072-9.9259-.5055 3.4607,2.9941 4.1386,5.05 3.2405,6.5746 2.326-1.1865 5.3377-.5263 9.0281,3.0732z"/>
<path d="m638.8712,364.3496c1.4194-1.7084 1.6758-3.125 1.2548-5.2494 .7396,2.0684 2.4154,2.9114 5.1846,3.3694-2.1764,.0818-4.9048,.8539-6.4394,1.88z"/>
<path d="m657.3412,344.194c-2.8641,.8129-4.697,.3858-6.9717-1.2182 2.0207,1.956 2.2877,4.3971 1.959,7.9466 1.2131-3.5078 2.8909-5.4243 5.0127-6.7284z"/>
</g>
<g transform="matrix(18.68858 0 0 18.68858 -11805.44037 -6353.17721)">
<path d="m653.9565,358.5586c0,1.7433-1.3287,3.1565-2.9676,3.1565-1.639,0-2.9676-1.4132-2.9676-3.1565 0-1.7433 1.3287-3.1565 2.9676-3.1565 1.639,0 2.9676,1.4132 2.9676,3.1565z" transform="matrix(1 0 .49573 1 -178.07071 -.32374)"/>
<path d="m653.9565,358.5586c0,1.7433-1.3287,3.1565-2.9676,3.1565-1.639,0-2.9676-1.4132-2.9676-3.1565 0-1.7433 1.3287-3.1565 2.9676-3.1565 1.639,0 2.9676,1.4132 2.9676,3.1565z" transform="matrix(.42773 -.17605 .42206 .39773 209.32727 317.35061)"/>
</g>
</svg>
