<svg xmlns="http://www.w3.org/2000/svg" viewBox="0 0 512 512"><path d="m0,0h512v512h-512z"/>
<g fill="#fff" transform="matrix(4.83696 18.05178 18.05178 -4.83696 -15832.1786 1213.21975)">
<path d="m181.1759,854.6594c-4.0882,4.0883-11.2874,3.5177-16.0477-1.2427-4.7603-4.7603-5.3052-11.9337-1.2169-16.022 .3952-.3952 .8297-.7114 1.2777-1.0204-3.2728,4.05-3.4975,9.4956-.3214,12.6717 3.4436,3.4437 9.5457,2.9075 13.6512-1.198 1.9565-1.9565 3.0967-4.3672 3.3878-6.7327 2.8332,4.5246 2.6944,10.119-.7307,13.5441z"/>
<path d="m168.1211,850.1059c-4.3279-1.4627-5.8648-6.7371-3.4488-11.7471 2.4161-5.01 7.8833-7.8859 12.2113-6.4231 .4184,.1414 .7857,.3379 1.1511,.5465-4.0733-.9009-8.3996,.8321-10.0116,4.1748-1.7478,3.6243 .3535,7.7407 4.6997,9.2095 2.0712,.7 4.2732,.6667 6.2058,.0503-2.7625,3.5693-7.1816,5.4146-10.8075,4.1892z"/>
</g>
<g transform="matrix(.82753 -12.63358 11.12078 .75835 -8437.97662 6748.53075)">
<path fill="#fff" d="m560.3598,724.6173c-4.0883-4.0883-11.462-3.4503-16.2223,1.31-4.7603,4.7603-5.3052,11.9337-1.2169,16.022-2.5892-4.0434-2.5284-7.4446 .9563-11.6513 3.1316-3.7804 9.5457-2.9075 13.6512,1.198 1.9565,1.9565 3.0967,4.3672 3.3878,6.7327 3.1434-3.9798 2.8689-10.1864-.5561-13.6114z"/>
</g>
</svg>
