<svg xmlns="http://www.w3.org/2000/svg" viewBox="0 0 512 512"><path d="m0,0h512v512h-512z"/><g transform="matrix(18.68858 0 0-18.68858-1597.26 46800.97)"><g fill="#fff"><path d="m98.98 2477.98l-4.262 3.536 1.901 13.97 2.461 1.726 2.606-1.626 1.489-13.937z"/><path d="m110.29 2488.74l-3.672.793-4.725 11.318 1.036 2.303 2.48-.213 6.392-10.765z"/><path d="m88.01 2487.4l4.22 1.03 4.264 12.213-.449 2.727-2.793-.948-6.888-10.347z"/><path d="m107.92 2480.61l-1.796.8-1.725 5.03.402 2.01 1.586-1.177 2.574-4.557z"/><path d="m91.28 2485.5l-1.589-.578-2.511-3.755.14-1.85 1.669.682 2.511 3.756z"/></g><g fill="none"><g stroke="#000"><path d="m95.57 2481.54l4.751 3.03 2.593-2.081"/><path d="m100.23 2484.52l-.769 12.4"/><path d="m107.22 2489.65l.548 3.96-4.485 9.03"/><path d="m107.84 2493.47l3.383-.758"/><path d="m92.29 2488.85l-1.97 2.599 5.662 11.02"/><path d="m87.01 2491.52l3.145-.052"/></g><g stroke="#fff"><path d="m109.9 2489.03l-3.48.752-4.479 10.728.982 2.183 2.986-.202 5.423-10.203z"/><path d="m88.18 2487.9l3.984.263 4.124 12.809-.619 1.898-2.304-.736-6.42-10.117z"/><path d="m98.98 2478.48l-4.11 3.41 2.087 13.746 2.023 1.365 2.513-1.568 1.532-13.414z"/></g></g></g></svg>