<svg xmlns="http://www.w3.org/2000/svg" viewBox="0 0 512 512"><path d="m0,0h512v512h-512z"/><g stroke="#000"><path stroke-width=".935" d="m402.21 1874.7c0 6.761-5.481 12.243-12.243 12.243-6.761 0-12.243-5.481-12.243-12.243 0-6.761 5.481-12.242 12.243-12.242 6.761 0 12.243 5.481 12.243 12.242z" fill="#fff" transform="matrix(19.9908 0 0 19.99061-7539.93-37219.81)"/><g stroke-width=".916" fill="none" transform="matrix(20.39232 0 0 20.39225-7702.55-37905.49)"><path d="m390.26 1883.4v-24"/><path d="m384.26 1881.8l12-20.787"/><path d="m379.87 1877.4l20.787-12"/><path d="m378.26 1871.4h24"/><path d="m379.87 1865.4l20.787 12"/><path d="m384.26 1861.01l12 20.787"/><path d="m387.15 1883l6.212-23.18"/><path d="m381.77 1879.89l16.973-16.973"/><path d="m378.67 1874.51l23.19-6.212"/><path d="m378.67 1868.3l23.19 6.212"/><path d="m381.77 1862.92l16.973 16.973"/><path d="m387.15 1859.81l6.212 23.18"/></g></g><g transform="matrix(20.39232 0 0 20.39225-7702.55-37901.37)"><g stroke="#fff"><path stroke-width=".698" d="m358.11 1875.02c0 3.536-2.866 6.402-6.402 6.402-3.536 0-6.402-2.867-6.402-6.402 0-3.536 2.866-6.403 6.402-6.403 3.536 0 6.402 2.867 6.402 6.403z" transform="matrix(1.31235 0 0 1.31235-71.31-589.48)"/><path stroke-width=".837" d="m352.2 1872.68c-.619.121-1.146-.408-1.244-.985-.167-.976.668-1.793 1.583-1.93 1.486-.222 2.714 1.052 2.897 2.451.287 2.195-1.599 3.991-3.673 4.228-3.159.362-5.721-2.359-6.02-5.356-.117-1.166.075-2.352.527-3.432" fill="none" transform="matrix(-1.05798.28336.28348 1.0575 233.23-207.82)"/></g><path d="m390.15 1873.31c0 .592-.48 1.072-1.072 1.072-.592 0-1.072-.48-1.072-1.072 0-.592.48-1.072 1.072-1.072.592 0 1.072.48 1.072 1.072" fill="#fff" transform="matrix(.93959 0 0 .93959 25.775 111.71)"/></g><path stroke-width=".811" d="m397.17 1872.5c0 4.542-3.682 8.224-8.224 8.224-4.542 0-8.224-3.682-8.224-8.224 0-4.542 3.682-8.224 8.224-8.224 4.542 0 8.224 3.682 8.224 8.224z" fill="none" transform="matrix(23.0464 0 0 23.0464-8708.06-42897.7)" stroke="#000"/></svg>
