<svg xmlns="http://www.w3.org/2000/svg" viewBox="0 0 512 512"><path d="m0,0h512v512h-512z"/><g fill="#fff" transform="matrix(18.68858 0 0 18.68858-7037.36-46954.98)"><path d="m392.53 2536.91c0 1.064-.863 1.927-1.927 1.927s-1.927-.863-1.927-1.927 1.927-4.972 1.927-4.972 1.927 3.907 1.927 4.972"/><path d="m401.65 2530.42c0 1.064-.863 1.927-1.927 1.927s-1.927-.863-1.927-1.927 1.927-4.972 1.927-4.972 1.927 3.907 1.927 4.972"/><path d="m383.41 2530.42c0 1.064-.863 1.927-1.927 1.927s-1.927-.863-1.927-1.927 1.927-4.972 1.927-4.972 1.927 3.907 1.927 4.972"/></g><path stroke-width="1.196" d="m395.21 2525.64l-6.695-1.438-3.411 5.937-.701-6.811-6.701-1.409 6.261-2.771-.731-6.808 4.571 5.099 6.249-2.799-3.437 5.922z" fill="none" transform="matrix(-7.8122 13.53109 13.53109 7.8122-30824.73-24767.98)" stroke="#fff"/></svg>