<svg xmlns="http://www.w3.org/2000/svg" viewBox="0 0 512 512"><path d="m0,0h512v512h-512z"/>
<g fill="#fff" transform="matrix(15.81259 21.40565 -21.3796 15.81555 43625.00633 -51866.36394)">
<path d="m600.0509,2480.7325c1.5811-2.7382 .6427-6.2398-2.0955-7.8207 1.4042,2.4322 2.0955,5.069 2.0955,7.8207z"/>
<path d="m602.6711,2481.9903c2.3204-4.0188 .9433-9.1576-3.0754-11.4778 2.5195,3.4467 3.5001,7.3254 3.0754,11.4778z"/>
<path d="m605.5557,2483.6671c3.2446-5.6192 1.319-12.8048-4.3002-16.049 4.1466,5.3396 5.2462,9.2496 4.3002,16.049z"/>
<path d="m609.3039,2485.8791c4.4579-7.7207 1.8123-17.5933-5.9084-22.0509 5.8692,6.4831 7.8141,13.5959 5.9084,22.0509z"/>
</g>
<g transform="matrix(18.68858 0 0 18.68858 -11128.735 -46288.975)">
<path fill="none" stroke="#fff" d="m616.3369,2494.1422-15.3698-11.8602"/>
<g fill="#fff">
<path d="m610.9552,2490.4769c1.7744,2.3852 1.3907,5.3495-.1022,6.9647l4.7087-3.8357z"/>
<path d="m607.6988,2487.8548c1.187,1.5956 .9294,3.5785-.0682,4.6587l3.1496-2.5659z"/>
<path d="m604.3334,2485.2408c1.0796,1.4512 .8462,3.2543-.0626,4.237l2.8645-2.3335z"/>
<path d="m600.6635,2482.7097c1.4357,1.1067 1.726,2.9949 .9648,3.8193l2.4026-1.9574z"/>
<path d="m611.3696,2489.8178c2.7633,1.0966 5.8366-.041 7.0104-1.9013l-2.4862,5.541z"/>
<path d="m608.3035,2487.3511c1.8486,.7336 3.6972-.028 4.4824-1.2715l-1.6633,3.7064z"/>
<path d="m604.9076,2484.7769c1.6812,.6673 3.3624-.025 4.0763-1.1575l-1.5125,3.3709z"/>
<path d="m601.325,2482.0268c1.41,.5595 3.5275,.7524 4.1266-.1966l-1.2688,2.8274z"/>
<path d="m597.7368,2484.0506c3.0306-.085 5.0289-2.5483 4.4099-5.5439-.8456,2.254-2.3746,4.1125-4.4099,5.5439z"/>
<path d="m599.1183,2482.9497 1.8662-1.0526 .3656-1.7095c-.5531,.958-2.0879,.2412-3.0936-.442 .8735,.819 1.8043,2.2615 .8618,3.2041z"/>
</g>
</g>
</svg>
