<svg xmlns="http://www.w3.org/2000/svg" viewBox="0 0 512 512"><path d="m0,0h512v512h-512z"/><g stroke-width="16" fill="#fff" stroke="#000"><path d="m147.08 439.44h68.923l-8.731-303.62-59.37-1.748z"/><path d="m388.04 481.25h68.923l-7.736-352.35-58.37 4.22z"/><path d="m246.8 463.17h68.923l-7.736-352.35-58.37 4.22z"/><path d="m329.76 494.28h68.923l-12.709-302.62-55.39 4.22z"/><path d="m21.978 474.73h68.923l-7.736-352.35-58.37 4.22z"/><path d="m81.58 505.41l89.32-2.813-14.769-249.67-69.63-7.736z"/><path d="m171.24-1.407c-16.738 26.298-31.02 53.53-69.968 77.36l40.791-.703c-9.421 28.571-42.37 54.2-86.55 72.47l73.89 2.778c-12.386 31.51-51.47 55.24-91.94 73.64 83.61 28.462 199.8 45.43 287.12-2.351-31.356-17.846-79.64-40.16-91.8-70.59l62.31-3.687c-37.29-22.04-78.43-51.33-85.59-69.49l43.33-2.657c-32.892-21.25-70.98-42.43-81.6-76.78z"/><path d="m405.67 10.177c-16.738 26.298-32.427 77.44-71.37 101.27l37.978.703c-9.421 28.571-38.852 33.1-83.03 51.38l73.89 2.778c-12.386 31.51-54.985 55.24-95.46 73.64 68.06 23.17 157.71 38.725 235.81 17.931-.227-22.956-.112-16.414-.082-49.735-18.23-11.883-30.613-25.426-36.888-41.13l62.31-3.687c-37.29-22.04-81.949-30.23-89.11-48.39l46.14-4.064c-32.892-21.25-69.57-66.34-80.19-100.69z"/><path d="m264.38 43.976c-16.738 26.298-31.02 53.53-69.968 77.36l40.791-.703c-9.421 28.571-42.37 54.2-86.55 72.47l73.89 2.778c-12.386 31.51-51.47 55.24-91.94 73.64 83.61 28.462 199.8 45.43 287.12-2.351-31.356-17.846-79.64-40.16-91.8-70.59l62.31-3.687c-37.29-22.04-78.43-51.33-85.59-69.49l43.33-2.657c-32.892-21.25-70.98-42.43-81.6-76.78z"/><path d="m354.85 42.12c16.287 30.668 30.18 62.43 68.08 90.22l-39.692-.82c9.167 33.32 69.36 79.61 96.88 95.18l-64.16 8.16c12.05 36.746 29.686 48.832 69.07 70.29-69.4 35.652-194.41 52.985-279.39-2.742 30.511-20.811 77.5-46.829 89.33-82.31l-60.63-4.3c36.29-25.705 76.32-59.858 83.28-81.04l-42.16-3.099c32.01-24.781 69.07-49.48 79.4-89.54z"/><path d="m82.71 17.562c16.738 26.298 31.02 53.53 69.968 77.36l-40.791-.703c9.421 28.571 42.37 54.2 86.55 72.47l-73.89 2.778c12.386 31.51 51.47 55.24 91.94 73.64-58.3 19.847-136.55 34.11-205.7 24.719-1.069-30.763-.71-22.2 0-79.49 5.266-5.72 7.817-11.765 10.376-18.17l-10.376-.598c-.033-26.09-1.099.428 0-36.67 17.503-13.279 29.824-26.19 33.655-35.911l-43.33-2.657c32.892-21.25 70.98-42.43 81.6-76.78z"/><path d="m110.1 104.78c-16.738 26.298-31.02 53.53-69.968 77.36l40.791-.703c-9.421 28.571-42.37 54.2-86.55 72.47l73.89 2.778c-12.386 31.51-33.886 58.05-74.36 76.45 83.61 28.462 182.21 42.622 269.54-5.164-31.356-17.846-79.64-40.16-91.8-70.59l62.31-3.687c-37.29-22.04-78.43-51.33-85.59-69.49l43.33-2.657c-32.892-21.25-70.98-42.43-81.6-76.78z"/></g></svg>