<svg xmlns="http://www.w3.org/2000/svg" viewBox="0 0 512 512"><path d="m0,0h512v512h-512z"/>
<g transform="matrix(18.68858 0 0 18.68858 -13162.07496 -33369.58087)">
<g fill="#fff">
<path d="m708.7212,1811.5761 18.3506,0 3.5713-5.357-4.5592,1.2538 2.8115-5.585-5.585,1.7477 3.066-10.3721-7.4732,9.1943-1.5345-6.5663-2.0748,10.3656-6.1929-8.1685 1.9376,8.3205-4.4452-2.3936 2.5075,4.9011-3.3814-.304z"/>
<path d="m705.0839,1786.5443 0,2.5476c4.6457,4.5188 8.8872,12.8343 9.5452,20.004h4.113c-.1572-8.0384-5.259-17.2709-9.6071-22.5516z"/>
</g>
<g fill="none">
<g stroke="#fff">
<path d="m711.2142,1785.9907c3.9946,4.5579 7.9756,12.9746 8.3947,20.0718"/>
<path d="m704.8203,1791.7398c4.1276,4.5076 7.908,12.247 8.341,19.2659"/>
</g>
<path stroke="#000" d="m704.922,1795.0824 0-9.0043 11.6639,0"/>
</g>
<path d="m719.5935,1811.7822 1.659-3.8709-2.212,1.6589 .0461-4.8386-2.1659,4.3317-2.1659-2.4884-.0922,3.4562-2.6267-.6913 1.705,2.4885"/>
<g fill="#fff">
<path d="m721.9899,1792.2055 3.2119-2.9993-.6844,3.2285-2.6406,3.9719z"/>
<path d="m730.75,1802.125-1.8438,3.0312 1.8438-.9062 0-2.125z"/>
</g>
</g>
</svg>
