<svg xmlns="http://www.w3.org/2000/svg" viewBox="0 0 512 512"><path d="m0,0h512v512h-512z"/><g transform="matrix(18.68858 0 0 18.68858-5673.32-29262)"><path stroke-width=".744" d="m321.1 1582.17c0 3.44-2.789 6.229-6.229 6.229-3.44 0-6.229-2.789-6.229-6.229 0-3.44 2.789-6.229 6.229-6.229 3.44 0 6.229 2.789 6.229 6.229z" transform="matrix(.95015-.95015.95015.95015-1484.86 375.3)" stroke="#fff"/><path d="m304.94 1566.75c4.605 10.04 15.248 20.685 25.291 25.291-4.606-10.04-15.248-20.686-25.291-25.291" fill="#fff"/><g fill="none" stroke="#000"><path d="m304.52 1567.17c4.707 9.94 15.35 20.582 25.291 25.291"/><path d="m305.36 1566.33c9.94 4.708 20.582 15.35 25.291 25.291"/></g></g><g fill="#fff" transform="matrix(13.21482-13.21482 13.21482 13.21482-24806.16-16422.55)"><path d="m329.54 1582.55c-1.761-1.531-4.705-2.32-6.996-1.875 1.761 1.531 4.705 2.32 6.996 1.875"/><path d="m305.31 1576.06c2.291-.445 5.235.343 6.996 1.875-2.291.445-5.235-.343-6.996-1.875"/><path d="m326.29 1588.17c-.76-2.207-2.915-4.362-5.122-5.122.76 2.207 2.915 4.362 5.122 5.122"/><path d="m308.56 1570.44c2.207.76 4.362 2.915 5.122 5.122-2.207-.76-4.362-2.915-5.122-5.122"/><path d="m308.56 1588.17c2.207-.76 4.362-2.915 5.122-5.122-2.207.76-4.362 2.915-5.122 5.122"/><path d="m326.29 1570.44c-.76 2.207-2.915 4.362-5.122 5.122.76-2.207 2.915-4.362 5.122-5.122"/><path d="m305.31 1582.55c2.291.445 5.235-.344 6.996-1.875-2.291-.445-5.235.344-6.996 1.875"/><path d="m329.54 1576.06c-1.761 1.531-4.705 2.32-6.996 1.875 1.761-1.531 4.705-2.32 6.996-1.875"/></g></svg>