<svg xmlns="http://www.w3.org/2000/svg" viewBox="0 0 512 512"><path d="m0,0h512v512h-512z"/><g stroke="#000"><g fill="#fff"><path d="m8 496h256l-64-304h-128z" stroke-width="18"/><path d="m72 192h-32v-112l96-48 96 48v112h-32z" stroke-width="16"/></g><g stroke-width="18" fill="none"><path d="m96 256v48"/><path d="m176 384v48"/></g></g><path d="m245.55 481.53c10.299-14.876 34.02-29.09 58.45-33.534 7.512 19.686 25.08 32 48 32 12.27-14.19 23.17-29.671 48-32 7.07 20.07 27.24 32 48 32 9.06-16 13.891-20.986 32-32" stroke-width="18" fill="none" stroke="#fff"/><path d="m240 128l240-80v176l-240-64z" fill="#fff"/><path d="m208 96v64h-144v-64z"/><g stroke-width="16" fill="none" stroke="#fff"><path d="m103.38 96l.384 64"/><path d="m167.38 96l.384 64"/></g></svg>