<svg xmlns="http://www.w3.org/2000/svg" viewBox="0 0 512 512"><path d="m0,0h512v512h-512z"/><g fill="#fff" stroke="#000"><g stroke-width="16"><path d="m116.57 388.4c-41.02-1.089-76.986 61.5-51.742 94.7 17.273 11.936 26.37 4.902 35.05.737-7.209-22.06-19.03-47.916 41.487-70.825z"/><path d="m290.91 118.6l-196.67 255.56c7.816 32.997 18.426 39.851 46.42 49.23l250.02-205.88"/></g><path d="m272.87912 36.57143a195.51648 232.08791 0 1 1 -391.03296 0 195.51648 232.08791 0 1 1 391.03296 0z" stroke-width="34.771" transform="matrix(.50135 0 0 .42235 350.14 104.06)"/><g stroke-width="16"><path d="m212.01 221.13c5.399 45.11 33.926 73.999 81.75 76.19"/><path d="m266.12 248.34l34.31-38.79" stroke-linecap="round"/><path d="m317.86 51.994c11 99.36 66.6 131.55 143.41 133.65"/></g></g></svg>