<svg xmlns="http://www.w3.org/2000/svg" viewBox="0 0 512 512"><path d="m0,0h512v512h-512z"/><path stroke-width=".939" d="m288.94 712.16c0 6.785-5.501 12.286-12.286 12.286-6.785 0-12.286-5.501-12.286-12.286 0-6.785 5.501-12.286 12.286-12.286 6.785 0 12.286 5.501 12.286 12.286z" fill="#fff" transform="matrix(19.89867 0 0 19.89867-5247.16-13910.18)" stroke="#000"/><g transform="matrix(14.29342-10.41268 10.41268 14.29342-11355.15 2919.37)"><path d="m604.22 265.73c1.888-.304 4.747-1.069 6.289-2.623l1.355-7.675 7.418.356c-9.06 3.935-3.762 6.627 5.529 3.283l3.967 4.297c-4.103-2.791-8.709-2.326-9.917.397l7.14.727 3.372 4.297c-3.967-2.855-8.142-4.179-10.188-1.576l6.102 1.81 1.621 5.981c-4.294-6.474-9.705-6.862-14.409-6.529-1.914.933-3.711 2.826-5.269 4.802z" fill-rule="evenodd"/><path stroke-width="1.057" d="m614.5 265.09c-2.337-3.19-1.164-7.548 5.259-9.02" fill="none" stroke="#fff"/></g></svg>