<svg xmlns="http://www.w3.org/2000/svg" viewBox="0 0 512 512"><path d="m0,0h512v512h-512z"/><g fill="#fff"><path d="m32.39 416.95c17.28 23.824 40.811 44.522 61.22 66.783 8.261-.504 12.879-9.754 18.921-15.583 26.737-50.49 46.2-96.41 77.54-143.21 16.03-10.301 36.664-20.21 36.36-31.907l-11.872-10.02 12.985-10.759-20.733-22.894c-6.256-.462-11.989-2.725-18.223-4.19-11.304-.279-16.778 7.678-18.55 11.501-9.31 20.08-15.02 41.63-26.898 61.96-36.13 33.16-81.964 64.01-110.75 98.32"/><path d="m327.41 148.56l25.655 36.577 98.19-102.84-18.47-22.17z" stroke-width="19" stroke="#fff"/><path d="m410.07 33.32c1.248-7.182 6.223-8.568 11.872-8.904l33.762 33.02 18.55-15.954 8.533 8.533-31.536 32.28z"/><path d="m425.66 51.875l-237.07 193.3 8.162 12.615 236.04-197.66z"/></g><g stroke-width="19" stroke="#fff"><path d="m227.54 272.26l116.84-99.58-16.97-24.12-120.6 100.8z" fill="none"/><path d="m214.55 283.02l11.872 10.02c12.99 1.787 23.58 7.172 28.2 21.519-5.67 27.793 2.486 39.19 6.678 55.28l44.521-10.388c-13.661-22.938-16.298-56.27-21.889-86.82l57.13-47.49-30.353-23.772z" fill="#fff" stroke-linejoin="round"/></g><path d="m310.71 201.37l27.01-22.605c22.529 32.568 81.55 68.837 128.37 84.59l-9.275 24.487c-55.44-17.273-100.81-51.805-146.11-86.47" fill="#fff"/><path d="m288.8 302.07c21.557-2.692 34.21-17.446 46.33-29.807l-10.612-33.364" stroke-width="8" fill="none" stroke="#fff" stroke-linejoin="round"/></svg>