<svg xmlns="http://www.w3.org/2000/svg" xmlns:xlink="http://www.w3.org/1999/xlink" viewBox="0 0 512 512"><path d="m0,0h512v512h-512z"/><defs><path id="0" d="m196.33898 252.20338a28.745764 25.491526 0 1 1 -57.49153 0 28.745764 25.491526 0 1 1 57.49153 0"/></defs><g fill="#fff"><path d="m452.34 50.983c35.607 135.24-226.81 536.38-390.95 337.54-104.58-126.68 256.45-352.57 390.95-337.54"/><path d="m209.36 387.25c6.783-34.12 34.25-51.764 68.34-55.32l59.12 111.73c-2.568 27.23-18.201 35.755-42.31 33.627z" stroke="#000" stroke-linejoin="round" stroke-width="19"/></g><use transform="matrix(.28403-.97659.95879.36212-166.29 431.93)" xlink:href="#0"/><use transform="matrix(.89883-.47594.40748.94041-112.39 133.3)" xlink:href="#0"/><use transform="matrix(1.0146-.07058-.00885 1.02486 35.04 2.847)" xlink:href="#0"/><use transform="matrix(.70737-.29217.19941.62358 212.54 12.65)" xlink:href="#0"/><use transform="matrix(.70737-.29217.19941.62358 201.96 59.25)" xlink:href="#0"/><use transform="matrix(.70737-.29217.19941.62358 160.42 15.15)" xlink:href="#0"/><use transform="matrix(.70737-.29217.19941.62358 148.21 62.58)" xlink:href="#0"/><path d="m294.51 477.29c-2.266-27.19 13.347-47.26 42.31-33.627" fill="none" stroke="#000" stroke-linecap="round" stroke-width="19"/></svg>
