<svg xmlns="http://www.w3.org/2000/svg" xmlns:xlink="http://www.w3.org/1999/xlink" viewBox="0 0 512 512"><path d="m0,0h512v512h-512z"/><g stroke-width="16" stroke="#fff" stroke-linecap="square"><path d="m176 48c-34.28-29.29-100.42-32.556-128 0-20.969 24.753-8.499 59.859 16 96"/><path d="m336 48c34.28-29.29 100.42-32.556 128 0 20.969 24.753 8.499 59.859-16 96"/></g><path d="m32 256c0-128 96-224 224-224 128 0 224 96 224 224 0 80-32 128-96 128-32 48-32 96-128 96-96 0-96-48-128-96-64 0-96-64-96-128" fill="#fff"/><path d="m192 416c48 32 80 32 128 0" stroke-width="16" fill="none" stroke="#000"/><path d="m208 352c48-16 48-16 96 0l-48 48z"/><g stroke="#000"><path d="m288 208c0-48 32-64 48-64 16 0 80 32 80 64 0 32-16 96-48 96-32 0-80-32-80-96z"/><path d="m224 208c0-48-32-64-48-64-16 0-80 32-80 64 0 32 16 96 48 96 32 0 80-32 80-96z"/></g><path d="m192 208a16 16 0 1 1 -32 0 16 16 0 1 1 32 0z" transform="translate(16 32)" fill="#fff" stroke="#fff" id="a"/><use xlink:href="#a" transform="translate(128)"/></svg>
