<svg xmlns="http://www.w3.org/2000/svg" viewBox="0 0 512 512"><path d="m0,0h512v512h-512z"/>
<g fill="none" stroke="#fff" transform="matrix(17.66921 0 0 17.66921 -195.04692 -44374.23486)">
<path d="m36.8728,2518.1217 0,3.9121-19.8577,0 0-3.1476-4.268,0"/>
<path d="m34.1677,2524.1893-19.6225,0 0,6.0464"/>
<path d="m17.0151,2526.299 18.5251,0"/>
<path d="m34.1677,2535.4695 0-7.1067-15.6825,0 0,5.5189"/>
<path d="m28.7559,2515.3869 0,23.2574"/>
<path d="m26.6004,2516.622 .0001,17.1526"/>
<path d="m24.4907,2513.2112 0,22.9744"/>
<path d="m22.4269,2533.7747-0-18.9757-4.6812,0"/>
</g>
<g transform="matrix(17.66921 0 0 17.66921 -208.79916 -44382.257)">
<g stroke="#000">
<path fill="#fff" d="m21.3478,2520.63h10.0439v10.04h-10.0439z"/>
<path fill="none" d="m23.3408,2522.0165 0,4.6563 2.125,2.125 4.4688,0"/>
</g>
<path d="m22.9314,2528.7527c0,.5319-.4312,.9631-.9631,.9631-.5319,0-.9631-.4312-.9631-.9631 0-.5319 .4312-.9631 .9631-.9631 .5319,0 .9631,.4312 .9631,.9631z" transform="matrix(.89286 0 0 .89286 4.03785 270.60068)"/>
<g fill="#fff">
<path d="m37.6511,2523.9805c0,.9044-.7332,1.6377-1.6377,1.6377-.9045,0-1.6377-.7333-1.6377-1.6377 0-.9045 .7332-1.6377 1.6377-1.6377 .9045,0 1.6377,.7332 1.6377,1.6377z" transform="matrix(.9703 0 0 .9703 2.6042 69.87646)"/>
<path d="m37.6511,2523.9805c0,.9044-.7332,1.6377-1.6377,1.6377-.9045,0-1.6377-.7333-1.6377-1.6377 0-.9045 .7332-1.6377 1.6377-1.6377 .9045,0 1.6377,.7332 1.6377,1.6377z" transform="matrix(.9703 0 0 .9703 2.6042 77.95819)"/>
<path d="m37.6511,2523.9805c0,.9044-.7332,1.6377-1.6377,1.6377-.9045,0-1.6377-.7333-1.6377-1.6377 0-.9045 .7332-1.6377 1.6377-1.6377 .9045,0 1.6377,.7332 1.6377,1.6377z" transform="matrix(.9703 0 0 .9703 -9.65762 88.5539)"/>
<path d="m37.6511,2523.9805c0,.9044-.7332,1.6377-1.6377,1.6377-.9045,0-1.6377-.7333-1.6377-1.6377 0-.9045 .7332-1.6377 1.6377-1.6377 .9045,0 1.6377,.7332 1.6377,1.6377z" transform="matrix(.9703 0 0 .9703 -.0128 87.20678)"/>
<path d="m37.6511,2523.9805c0,.9044-.7332,1.6377-1.6377,1.6377-.9045,0-1.6377-.7333-1.6377-1.6377 0-.9045 .7332-1.6377 1.6377-1.6377 .9045,0 1.6377,.7332 1.6377,1.6377z" transform="matrix(.9703 0 0 .9703 -16.30211 66.2718)"/>
<path d="m37.6511,2523.9805c0,.9044-.7332,1.6377-1.6377,1.6377-.9045,0-1.6377-.7333-1.6377-1.6377 0-.9045 .7332-1.6377 1.6377-1.6377 .9045,0 1.6377,.7332 1.6377,1.6377z" transform="matrix(.9703 0 0 .9703 -5.36416 66.2718)"/>
<path d="m37.6511,2523.9805c0,.9044-.7332,1.6377-1.6377,1.6377-.9045,0-1.6377-.7333-1.6377-1.6377 0-.9045 .7332-1.6377 1.6377-1.6377 .9045,0 1.6377,.7332 1.6377,1.6377z" transform="matrix(.9703 0 0 .9703 -15.71465 85.58419)"/>
<path d="m37.6511,2523.9805c0,.9044-.7332,1.6377-1.6377,1.6377-.9045,0-1.6377-.7333-1.6377-1.6377 0-.9045 .7332-1.6377 1.6377-1.6377 .9045,0 1.6377,.7332 1.6377,1.6377z" transform="matrix(.9703 0 0 .9703 -19.65405 81.73781)"/>
</g>
<path fill="none" stroke="#000" d="m29.9246,2525.6566-3.4741,0 0-3.6308"/>
</g>
</svg>
