<svg xmlns="http://www.w3.org/2000/svg" viewBox="0 0 512 512"><path d="m0,0h512v512h-512z"/><g stroke="#000"><g stroke-width="18"><g fill="#fff"><path d="m100 240c-41.02 0-37.21-71.4-68.22-56.05-31.01 15.344-7.226 104.05 20.22 120.05" stroke-linejoin="round" stroke-linecap="round"/><path d="m370.29 98.29c-72.949-32-96-80-128-80-28.02 0-25.902 53.06 86.39 108.63"/><path d="m304 192c-360.99-12.453-246.24 240-168.68 288h328.68c17.823-12.647 7.803-22.594 0-32-9.64-11.621-39.447-19.22-64-16-35.791-14.574 87.67-96 0-192z"/></g><path d="m154.03 320c101.97-73.22 214.04-5.555 181.97 48-29.413 49.11-152.95 43.44-152.95 48 0 16 152.95 7.593 136.95 64" fill="none" stroke-linejoin="round"/></g><path d="m295.59 183.71c-1.204-9.141 13.42-25.23 3.64-23.711-103.08 16-166.37-85.961-123.23-86.05 32.04-.064 136.05 60.48 144 49.576 15.34-21.04 41.738-27.993 64-27.528 50.897 1.063 112 96 103.83 112-15.02 29.423-60.912 35.14-93.8 32-37.628-3.598-93.5-18.814-98.44-56.29z" fill="#fff" stroke-width="16"/></g><path d="m432 168a24 24 0 1 1 -48 0 24 24 0 1 1 48 0" transform="matrix(.66667 0 0 .66667 127.97 47.858)" color="#000"/><path d="m480 183.67c-32 .597-54.22 34.35-27.14 52.11" fill="none" stroke="#000" stroke-width="18"/></svg>