<svg xmlns="http://www.w3.org/2000/svg" viewBox="0 0 512 512"><path d="m0,0h512v512h-512z"/><g stroke="#000"><g stroke-width="16"><g fill="#fff"><path d="m93 210.63c-3.978-.497-79.07-50.974-79.07-50.974 8.165 42.74 29.15 75.82 59.677 101.7z"/><path d="m95.65 167.38c-18.296 66.858-17.435 67.03-51.591 103.79-41.724 79.03-34.24 120.78-31.398 164.17 27.448 34.79 82.33 33.24 115.32 21.717-1.048-48.22 6.428-94.23 39.41-141.28 40.39 37.419 102.08 19.594 131.81-13.05 30.38-33.36 1.273-80.37.703-135.36z"/><path d="m270.89 214.59l98.72-1.492v38.31h-98.72z"/><path d="m489.14 166.33v-51.29c-27.793 6.342-53.28 18.637-68.57 51.29z"/><path d="m265.56 167.37h233.49l.497 51.741h-233.49z"/><path d="m128 167.38c-20.17 32.32-21.305 68.37.703 110.07h142.07l.352-110.08z"/></g><g fill="none" stroke-linecap="round"><path d="m167.74 202.55h97.05"/><path d="m168.09 241.23h97.05"/></g></g><path d="m181.02 284.23c11.686 11.154 35.17 25.425 49.23 25.363 14.06-.063 38.82-13.46 48.14-24.527z" stroke-linejoin="bevel"/></g><path d="m74.901099 410.72528a15.824176 15.472528 0 1 1 -31.648351 0 15.824176 15.472528 0 1 1 31.648351 0" transform="matrix(.82153 0 0 .8402 21.706 45.48)"/><path d="m131.28875 324.51569a27.351822 27.351822 0 1 1 -54.703644 0 27.351822 27.351822 0 1 1 54.703644 0z" stroke-width="19.892" transform="matrix(.80433 0 0 .80433 5.04 62.881)" fill="#fff" stroke="#000"/></svg>