<svg xmlns="http://www.w3.org/2000/svg" viewBox="0 0 512 512"><path d="m0,0h512v512h-512z"/>
<g transform="matrix(18.68858 0 0 18.68858 -13169.07922 -45611.68184)">
<path fill="none" stroke="#fff" d="m728.5947,2443.7016c.3408,7.7284-3.0277,18.3708-10.2045,22.5144-7.4035-4.2745-10.3762-14.7711-10.0399-22.5144 6.9678-1.9948 13.5145-1.9266 20.2445,0z"/>
<g fill="#fff">
<path d="m2892.89-388.518h9.64v9.645h-9.64z" transform="matrix(.21895 .97574 -.21895 .97574 0 0)"/>
<path d="m4128.05-4882.48h7.75v7.76h-7.75z" transform="matrix(-.96223 .27224 -.96223 -.27224 0 0)"/>
<path d="m4753.18-3484.36h5.83v5.83h-5.83z" transform="matrix(-.4879 .8729 -.8729 .4879 0 0)"/>
<path d="m1084.41-3420.85h5.83v5.83h-5.83z" transform="matrix(-.8729 -.4879 -.4879 -.8729 0 0)"/>
</g>
</g>
</svg>
