<svg xmlns="http://www.w3.org/2000/svg" viewBox="0 0 512 512"><path d="m0,0h512v512h-512z"/>
<g fill="#fff" transform="matrix(18.68858 0 0 18.68858 -5001.3564 -46957.543)">
<path d="m290.5991,2535.3477-7.4477-2.7633-3.6225,6.3028-1.837-6.7814-1.9811,1.1593-4.6403-.024 4.7352-6.9228-5.753-5.464 6.4735,1.0433-.3694-7.769 6.7077,5.481 4.3577-4.6254-.8506,8.2131 6.005,.6148-3.9708,4.8144z"/>
<path d="m276.7674,2530.2269-4.1808,6.0467 6.019-4.0257"/>
<path d="m276.1496,2523.5275-7.5999,3.1929 7.1852,1.5181"/>
</g>
<g transform="matrix(9.83331 -9.83331 9.83331 9.83331 -27330.23989 -21807.59174)">
<path d="m275.7904,2523.1027 .0973,2.1027c4.4403,1.3146 14.557-.4347 15.9877-3.4747-4.7628,1.071-11.3452,1.5631-16.085,1.372z"/>
<path fill="none" stroke="#000" stroke-width="1.344" d="m268.9308,2524.1571 8.4278,0"/>
<path d="m273.8775,2521.0791c4.1511,0 4.4564,6.156 .0001,6.156z"/>
</g>
<g transform="matrix(18.68858 0 0 18.68858 -5001.3564 -46957.543)">
<path fill="#fff" d="m276.4686,2523.31-3.5042-9.8081 6.7609,7.7165"/>
<path d="m279.5,2518.4062c-1.912,.9115-1.9971,2.0921-.75,4.4063 1.4792,2.7449 3.6513,5.4122 5.875,7.5313l1.3125-1.3126c-2.0686-1.995-4.0111-4.6291-4.875-5.875-1.2673-1.8276-1.6615-3.0066-1.5625-4.75z"/>
<g fill="none" stroke="#000">
<path d="m287.9264,2532.3632-4.4344-4.4344"/>
<path d="m286.9431,2528.1409-3.2391,3.239"/>
</g>
<g fill="#fff">
<path d="m282.4728,2532.6106 3.0574,5.9594-1.2955-6.5812"/>
<path d="m285.3088,2522.2241 7.5902-4.899-5.9515,6.8136"/>
<path d="m281.0324,2519.9719 1.9029-6.499 .6096,6.6426"/>
</g>
</g>
</svg>
