<svg xmlns="http://www.w3.org/2000/svg" viewBox="0 0 512 512"><path d="m0,0h512v512h-512z"/><path d="m64 56h320c4.432 0 72 67.57 72 72v320c0 4.432-3.568 8-8 8h-384c-4.432 0-8-3.568-8-8v-384c0-4.432 3.568-8 8-8z" stroke-width="16" stroke="#fff"/><g fill="#fff"><rect x="106" rx="8" y="212" height="200" width="300"/><rect x="127.39" rx="7.718" ry="7.08" y="55.39" height="113.22" width="185.22"/></g><rect x="144" rx="7.718" ry="9.951" y="64" height="90" width="64"/><path d="m352 247l128 128h-64v128h-128v-128h-64z" stroke-width="18" fill="#fff" stroke="#000"/></svg>