<svg xmlns="http://www.w3.org/2000/svg" xmlns:xlink="http://www.w3.org/1999/xlink" viewBox="0 0 512 512"><path d="m0,0h512v512h-512z"/><g stroke-width="18" fill="#fff" stroke="#000" stroke-linejoin="round"><path d="m507.62 170.1c-11.08 36.575-21.21 14.12-31.606 7.695l-1.786-77.09c43.31 27.409 38.753 53.588 33.393 69.4z"/><path d="m368.16 329.45l29.32 109.66c15.526 3.594 29.662 4.099 36.09-12.525l-34.59-102.9z"/><path d="m148.44 328.28l3.65 113.45c18.626 19.2 28.359 7.771 37.991-4l-10.322-108.06z"/><path d="m64.43 358.64c19.896 8.772 30.26 19.06 64.51-9.643 21.353 35.27 41.96 39.42 65.31 36.761 19.719-2.244 40.94-15.761 50.942-43.11 11.316 26.527 27.422 31.01 45.22 31.688 13.946.535 28.441.47 36.879-22.05 11.984 21.23 24.629 17.663 37.803 15.05 15.596-3.096 28.51-6.107 36.46-33.934 16.876 12.705 37.3.045 48.18-13.899 22.393-28.71 15.679-75.6 11.534-113.34-3.524-32.09-5.351-74.49-30.372-90.89-13.672-8.965-26.716-5.857-47.07 7.922-10.206-23.89-28.757-26.15-45.974-26.21-15.09-.049-35.19 8.64-40.42 22.711-3.068-15.258-25.07-22.365-40.522-22.538-15.739-.176-35.87 11.334-41.769 22.02-5.298-17.218-26.74-25.282-41.803-24.436-15.767.886-36.74 12.305-42.19 30.409-29.889-16.292-58.668-7.637-78.11 10-39.05 35.428-48.32 93.8-35.21 154.21 7.62 35.1 21.12 58.06 46.582 69.29z"/><g stroke-linecap="round"><path d="m87.57 333.03l-24.12 114.96c6.03 14.661 19.684 14.07 37.968 4.219l39.36-109.97c21.11-14.43 38.993-38.932 39.851-55.29"/><path d="m313.6 338.31l18.213 109.58c17.46 13.749 28.416 6.312 37.534-7.111l-14.179-117.97"/></g><path d="m385.36 102.13c-11.344 9.937-17.97 11.84-24.13 20.374-11.11 15.379-18.578 41.811-21.18 52.823-4.127 17.458 5.508 36.02 24.316 32.87 5.317-.89 18.663-37.22 21.648-32.663 12.439 18.995 20.14 47.41 41.569 57.27 11.938 5.489 32.17 5.319 39.29-3.188 7.885-9.128 12.517-41.531 13.02-59.46.254 10.397 5.558 23.702 17.08 22.357 20.548-5.068 6.432-57.28-7.463-80.29-5.291-8.762-20.834-12.668-25.737-16.749-15.328-12.757-49.39-23.17-78.41 6.66z"/></g><path d="m434.98306 201.22034a7.864407 7.59322 0 1 1 -15.72881 0 7.864407 7.59322 0 1 1 15.72881 0" transform="matrix(1.14439 0 0 1.18527-27.499-90.24)" id="a"/><use xlink:href="#a" transform="translate(-53.35 3.388)"/><path d="m386.2 176.65c-1.946-9.235-10.518-69.52-.119-62.696 22.565 14.797 74.75 17.894 82.67-4.076 4.47-12.386 10.813 39.609 11.442 60.1" stroke-width="18" fill="none" stroke="#000" stroke-linecap="round" stroke-linejoin="round"/><path d="m437.43 194.19l3.761 22.515c-6-3.674-15.43-3.646-16.533-16.12-.667-7.543 6.548-9.306 12.772-6.393"/><path d="m462.2 197.11c.044 7.768-5.777 14.978-12.725 18.951l-.95-23.07c6.612-3.692 13.636-2.75 13.675 4.122"/></svg>
