<svg xmlns="http://www.w3.org/2000/svg" xmlns:xlink="http://www.w3.org/1999/xlink" viewBox="0 0 512 512"><path d="m0,0h512v512h-512z"/><defs><path d="m47.29 102.54c0 1.318-1.069 2.386-2.386 2.386-1.318 0-2.386-1.069-2.386-2.386 0-1.318 1.069-2.386 2.386-2.386 1.318 0 2.386 1.069 2.386 2.386z" id="a"/></defs><path d="m55.685 101.52c0 2.514-2.038 4.552-4.552 4.552-2.514 0-4.552-2.038-4.552-4.552 0-2.514 2.038-4.552 4.552-4.552 2.514 0 4.552 2.038 4.552 4.552" transform="matrix(28.78097 28.78097-28.7821 28.7821 1686.58-4127.61)"/><path stroke-width="1.046" d="m55.685 101.52c0 2.514-2.038 4.552-4.552 4.552-2.514 0-4.552-2.038-4.552-4.552 0-2.514 2.038-4.552 4.552-4.552 2.514 0 4.552 2.038 4.552 4.552z" fill="#fff" transform="matrix(12.63049 12.63049-12.63105 12.63105 876.17-1666.73)" stroke="#000"/><path stroke-width=".674" d="m55.685 101.52c0 2.514-2.038 4.552-4.552 4.552-2.514 0-4.552-2.038-4.552-4.552 0-2.514 2.038-4.552 4.552-4.552 2.514 0 4.552 2.038 4.552 4.552z" fill="none" transform="matrix(19.61684 19.61684-19.61778 19.61778 1226.5-2733.29)" stroke="#fff"/><g stroke-width=".936" fill="#fff" transform="matrix(14.114 14.114-14.1146 14.1146 1068.48-1111.62)" stroke="#000"><path d="m23 80.09c-1.385.11-2.694.899-3.438 2.188-1.445 2.504-3.582 2.923-5.938 1.563-.489-.283-.891-.657-1.219-1.063-.505.093-1 .115-1.5.031.172 2.778 1.706 5.401 4.313 6.906 4.14 2.391 9.453 1.049 11.844-3.094 1.195-2.072.476-4.773-1.594-5.969-.776-.448-1.638-.629-2.469-.563z"/><path d="m22.781 66.63c-2.392 0-4.375 1.985-4.375 4.375 0 2.39 1.995 4.282 4.375 4.281 2.892-.001 4.313 1.654 4.313 4.375 0 .728-.198 1.379-.5 1.969.274.324.489.68.656 1.063 2.477-1.508 4.124-4.214 4.125-7.344.001-4.78-3.81-8.72-8.594-8.719z"/><path d="m15.16 67.75c-1.388.038-2.8.41-4.094 1.156-4.14 2.389-5.611 7.67-3.219 11.813 1.196 2.071 3.867 2.788 5.938 1.594 2.07-1.195 2.753-3.845 1.563-5.906-1.446-2.504-.731-4.546 1.625-5.906.52-.3 1.046-.489 1.594-.563.121-.469.302-.915.563-1.313-1.234-.598-2.591-.913-3.969-.875z"/></g><g stroke-width=".936" fill="#fff" transform="matrix(18.68858 0 0 18.68858-24.415-1233.36)" stroke="#000"><use xlink:href="#a" transform="matrix(.75522.75522-.75525.75525 51.51-36.781)"/><use xlink:href="#a" transform="matrix(.75522.75522-.75525.75525 65.53-33.978)"/><use xlink:href="#a" transform="matrix(.75522.75522-.75525.75525 55.715-23.497)"/></g></svg>
