<svg xmlns="http://www.w3.org/2000/svg" viewBox="0 0 512 512"><path d="m0,0h512v512h-512z"/><g fill="#fff" stroke="#000"><g transform="matrix(18.68858 0 0 18.68858-9760.33-20446.3)" fill-rule="evenodd"><path d="m533.52 1096.57c-4.606-4.988-12.08 1.778-6.703 7.575"/><path d="m530.65 1099.51c2.097-9.966 21.981-3.279 16.527 4.753 5.334 6.431-.982 16.14-7.08 14.1-4.189 5.064-11.427 1.762-11.45-2.16-6.648 2.567-7.587-5.944-3.133-6.805-3.211-4.808-.079-10.32 5.131-9.884z"/><path d="m529.18 1099.38l2.061-1.431c1.246 7.711 7.861 11.775 16.419 4.969l.24 2.052c-4.942 2.6-6.803 6.073-6.466 13.287l-1.714.27c.682-8.562-9.371-9.774-10.64-.604l-1.497-1.611c.768-2.243 1.503-5.773-3.094-6.373l.378-1.666c4.834 1.198 7.214-4.211 4.313-8.893z"/></g><path stroke-width="1.191" d="m535.19 1107.7c0 1.238-1 2.242-2.241 2.242s-2.241-1-2.241-2.242 1-2.241 2.241-2.241 2.241 1 2.241 2.241z" transform="matrix(17.1124-3.0261 0 14.39338-8921.84-14062.01)"/><path stroke-width=".902" d="m535.19 1107.7c0 1.238-1 2.242-2.241 2.242s-2.241-1-2.241-2.242 1-2.241 2.241-2.241 2.241 1 2.241 2.241z" transform="matrix(5.0426-18.92686-20.0112-10.0668 19924.98 21318.44)"/><path stroke-width=".916" d="m539.4 1117.85c0 .85-.689 1.539-1.539 1.539s-1.539-.689-1.539-1.539.689-1.539 1.539-1.539 1.539.689 1.539 1.539z" transform="matrix(3.92909 18.27089-21.79686 4.68747 22553.83-14972.98)"/></g></svg>