<svg xmlns="http://www.w3.org/2000/svg" viewBox="0 0 512 512"><path d="m0,0h512v512h-512z"/>
<g transform="matrix(18.68858 0 0 18.68858 -6360.8802 -46955.31979)">
<path stroke="#fff" d="m363.0733,2522.0721c-1.4286,0-2.5938,1.1652-2.5938,2.5937 0,.9184 .4661,1.7286 1.1875,2.1876l-1.4688,4.25h5.7188l-1.4688-4.25c.7214-.459 1.1875-1.2692 1.1875-2.1876 0-1.4285-1.1339-2.5937-2.5625-2.5937z"/>
<g fill="#fff">
<path d="m348.9784,2525.1096c0,2.3634-1.3869,4.2792-3.0976,4.2792-1.7108,0-3.0976-1.9158-3.0976-4.2792 0-2.3633 1.3868-4.2792 3.0976-4.2792 1.7108,0 3.0976,1.9159 3.0976,4.2792z" transform="matrix(.90523 0 0 .87884 31.46259 305.51864)"/>
<path d="m346.704,2523.86h12.11v1.79h-12.11z"/>
<path d="m352.935,2524.81h4.918v4.35h-4.918z"/>
</g>
<g fill="none" stroke="#000">
<path d="m356.5436,2530.1159 0-2.2992"/>
<path d="m354.4678,2529.5816 0-2.7869"/>
</g>
<path stroke="#fff" stroke-width=".857" d="m344.9019,2523.5132c0,.5986-.4853,1.0839-1.0839,1.0839-.5986,0-1.0839-.4853-1.0839-1.0839 0-.5986 .4853-1.0839 1.0839-1.0839 .5986,0 1.0839,.4853 1.0839,1.0839z" transform="matrix(1.16667 0 0 1.16667 -57.84495 -419.41132)"/>
</g>
</svg>
